<?xml version="1.0" encoding="UTF-8" standalone="no"?>
<!DOCTYPE svg PUBLIC "-//W3C//DTD SVG 1.1//EN"
 "http://www.w3.org/Graphics/SVG/1.1/DTD/svg11.dtd">
<!-- Generated by graphviz version 2.47.0 (20210316.0004)
 -->
<!-- Title: dependencies Pages: 1 -->
<svg width="8076pt" height="284pt"
 viewBox="0.00 0.00 8076.00 284.00" xmlns="http://www.w3.org/2000/svg" xmlns:xlink="http://www.w3.org/1999/xlink">
<g id="graph0" class="graph" transform="scale(1 1) rotate(0) translate(4 280)">
<title>dependencies</title>
<polygon fill="white" stroke="transparent" points="-4,4 -4,-280 8072,-280 8072,4 -4,4"/>
<text text-anchor="start" x="4013.01" y="-42.4" font-family="sans-serif" font-weight="bold" font-size="14.00">Legend</text>
<polygon fill="#ffffb3" stroke="transparent" points="3800,-10 3800,-30 3820,-30 3820,-10 3800,-10"/>
<text text-anchor="start" x="3823.63" y="-15.4" font-family="sans-serif" font-size="14.00"> &#160;Declarations</text>
<polygon fill="#8dd3c7" stroke="transparent" points="3913,-10 3913,-30 3933,-30 3933,-10 3913,-10"/>
<text text-anchor="start" x="3936.73" y="-15.4" font-family="sans-serif" font-size="14.00"> &#160;Module</text>
<polygon fill="#80b1d3" stroke="transparent" points="3999,-10 3999,-30 4019,-30 4019,-10 3999,-10"/>
<text text-anchor="start" x="4022.78" y="-15.4" font-family="sans-serif" font-size="14.00"> &#160;Bootstrap</text>
<polygon fill="#fdb462" stroke="transparent" points="4096,-10 4096,-30 4116,-30 4116,-10 4096,-10"/>
<text text-anchor="start" x="4119.67" y="-15.4" font-family="sans-serif" font-size="14.00"> &#160;Providers</text>
<polygon fill="#fb8072" stroke="transparent" points="4192,-10 4192,-30 4212,-30 4212,-10 4192,-10"/>
<text text-anchor="start" x="4215.73" y="-15.4" font-family="sans-serif" font-size="14.00"> &#160;Exports</text>
<g id="clust1" class="cluster">
<title>cluster_AppModule</title>
<polygon fill="none" stroke="black" stroke-dasharray="1,5" points="8,-70 8,-268 8060,-268 8060,-70 8,-70"/>
</g>
<g id="clust2" class="cluster">
<title>cluster_AppModule_declarations</title>
<polygon fill="none" stroke="black" points="2396,-78 2396,-130 8052,-130 8052,-78 2396,-78"/>
</g>
<g id="clust42" class="cluster">
<title>cluster_AppModule_providers</title>
<polygon fill="none" stroke="black" points="1966,-78 1966,-130 2388,-130 2388,-78 1966,-78"/>
</g>
<g id="clust39" class="cluster">
<title>cluster_AppModule_imports</title>
<polygon fill="none" stroke="black" points="16,-78 16,-130 1958,-130 1958,-78 16,-78"/>
</g>
<g id="clust41" class="cluster">
<title>cluster_AppModule_bootstrap</title>
<polygon fill="none" stroke="black" points="4108,-208 4108,-260 4232,-260 4232,-208 4108,-208"/>
</g>
<!-- AppComponent -->
<g id="node1" class="node">
<title>AppComponent</title>
<polygon fill="#ffffb3" stroke="black" points="8043.94,-122 7938.06,-122 7938.06,-86 8043.94,-86 8043.94,-122"/>
<text text-anchor="middle" x="7991" y="-99.8" font-family="Times,serif" font-size="14.00">AppComponent</text>
</g>
<!-- AppModule -->
<g id="node37" class="node">
<title>AppModule</title>
<polygon fill="#8dd3c7" stroke="black" points="4211.66,-187 4208.66,-191 4187.66,-191 4184.66,-187 4128.34,-187 4128.34,-151 4211.66,-151 4211.66,-187"/>
<text text-anchor="middle" x="4170" y="-164.8" font-family="Times,serif" font-size="14.00">AppModule</text>
</g>
<!-- AppComponent&#45;&gt;AppModule -->
<g id="edge1" class="edge">
<title>AppComponent&#45;&gt;AppModule</title>
<path fill="none" stroke="black" d="M7991,-122.2C7991,-146.36 7991,-186 7991,-186 7991,-186 4221.93,-186 4221.93,-186"/>
<polygon fill="black" stroke="black" points="4221.93,-182.5 4211.93,-186 4221.93,-189.5 4221.93,-182.5"/>
</g>
<!-- DashboardComponent -->
<g id="node2" class="node">
<title>DashboardComponent</title>
<polygon fill="#ffffb3" stroke="black" points="7919.97,-122 7778.03,-122 7778.03,-86 7919.97,-86 7919.97,-122"/>
<text text-anchor="middle" x="7849" y="-99.8" font-family="Times,serif" font-size="14.00">DashboardComponent</text>
</g>
<!-- DashboardComponent&#45;&gt;AppModule -->
<g id="edge2" class="edge">
<title>DashboardComponent&#45;&gt;AppModule</title>
<path fill="none" stroke="black" d="M7849,-122.38C7849,-146.28 7849,-185 7849,-185 7849,-185 4221.95,-185 4221.95,-185"/>
<polygon fill="black" stroke="black" points="4221.95,-181.5 4211.95,-185 4221.95,-188.5 4221.95,-181.5"/>
</g>
<!-- NavbarComponent -->
<g id="node3" class="node">
<title>NavbarComponent</title>
<polygon fill="#ffffb3" stroke="black" points="7760.03,-122 7637.97,-122 7637.97,-86 7760.03,-86 7760.03,-122"/>
<text text-anchor="middle" x="7699" y="-99.8" font-family="Times,serif" font-size="14.00">NavbarComponent</text>
</g>
<!-- NavbarComponent&#45;&gt;AppModule -->
<g id="edge3" class="edge">
<title>NavbarComponent&#45;&gt;AppModule</title>
<path fill="none" stroke="black" d="M7699,-122.32C7699,-145.66 7699,-183 7699,-183 7699,-183 4221.78,-183 4221.78,-183"/>
<polygon fill="black" stroke="black" points="4221.78,-179.5 4211.78,-183 4221.78,-186.5 4221.78,-179.5"/>
</g>
<!-- SearchInputComponent -->
<g id="node4" class="node">
<title>SearchInputComponent</title>
<polygon fill="#ffffb3" stroke="black" points="7619.47,-122 7470.53,-122 7470.53,-86 7619.47,-86 7619.47,-122"/>
<text text-anchor="middle" x="7545" y="-99.8" font-family="Times,serif" font-size="14.00">SearchInputComponent</text>
</g>
<!-- SearchInputComponent&#45;&gt;AppModule -->
<g id="edge4" class="edge">
<title>SearchInputComponent&#45;&gt;AppModule</title>
<path fill="none" stroke="black" d="M7545,-122.09C7545,-145.13 7545,-182 7545,-182 7545,-182 4221.76,-182 4221.76,-182"/>
<polygon fill="black" stroke="black" points="4221.76,-178.5 4211.76,-182 4221.76,-185.5 4221.76,-178.5"/>
</g>
<!-- MenuComponent -->
<g id="node5" class="node">
<title>MenuComponent</title>
<polygon fill="#ffffb3" stroke="black" points="7452.99,-122 7339.01,-122 7339.01,-86 7452.99,-86 7452.99,-122"/>
<text text-anchor="middle" x="7396" y="-99.8" font-family="Times,serif" font-size="14.00">MenuComponent</text>
</g>
<!-- MenuComponent&#45;&gt;AppModule -->
<g id="edge5" class="edge">
<title>MenuComponent&#45;&gt;AppModule</title>
<path fill="none" stroke="black" d="M7396,-122.01C7396,-144.49 7396,-180 7396,-180 7396,-180 4221.67,-180 4221.67,-180"/>
<polygon fill="black" stroke="black" points="4221.67,-176.5 4211.67,-180 4221.67,-183.5 4221.67,-176.5"/>
</g>
<!-- LoginComponent -->
<g id="node6" class="node">
<title>LoginComponent</title>
<polygon fill="#ffffb3" stroke="black" points="7321.28,-122 7206.72,-122 7206.72,-86 7321.28,-86 7321.28,-122"/>
<text text-anchor="middle" x="7264" y="-99.8" font-family="Times,serif" font-size="14.00">LoginComponent</text>
</g>
<!-- LoginComponent&#45;&gt;AppModule -->
<g id="edge6" class="edge">
<title>LoginComponent&#45;&gt;AppModule</title>
<path fill="none" stroke="black" d="M7264,-122.16C7264,-144.35 7264,-179 7264,-179 7264,-179 4221.69,-179 4221.69,-179"/>
<polygon fill="black" stroke="black" points="4221.69,-175.5 4211.69,-179 4221.69,-182.5 4221.69,-175.5"/>
</g>
<!-- SettingsComponent -->
<g id="node7" class="node">
<title>SettingsComponent</title>
<polygon fill="#ffffb3" stroke="black" points="7188.45,-122 7061.55,-122 7061.55,-86 7188.45,-86 7188.45,-122"/>
<text text-anchor="middle" x="7125" y="-99.8" font-family="Times,serif" font-size="14.00">SettingsComponent</text>
</g>
<!-- SettingsComponent&#45;&gt;AppModule -->
<g id="edge7" class="edge">
<title>SettingsComponent&#45;&gt;AppModule</title>
<path fill="none" stroke="black" d="M7125,-122.04C7125,-143.66 7125,-177 7125,-177 7125,-177 4221.77,-177 4221.77,-177"/>
<polygon fill="black" stroke="black" points="4221.77,-173.5 4211.77,-177 4221.77,-180.5 4221.77,-173.5"/>
</g>
<!-- AdminComponent -->
<g id="node8" class="node">
<title>AdminComponent</title>
<polygon fill="#ffffb3" stroke="black" points="7044.22,-122 6923.78,-122 6923.78,-86 7044.22,-86 7044.22,-122"/>
<text text-anchor="middle" x="6984" y="-99.8" font-family="Times,serif" font-size="14.00">AdminComponent</text>
</g>
<!-- AdminComponent&#45;&gt;AppModule -->
<g id="edge8" class="edge">
<title>AdminComponent&#45;&gt;AppModule</title>
<path fill="none" stroke="black" d="M6984,-122.17C6984,-143.5 6984,-176 6984,-176 6984,-176 4221.69,-176 4221.69,-176"/>
<polygon fill="black" stroke="black" points="4221.69,-172.5 4211.69,-176 4221.69,-179.5 4221.69,-172.5"/>
</g>
<!-- CoursesComponent -->
<g id="node9" class="node">
<title>CoursesComponent</title>
<polygon fill="#ffffb3" stroke="black" points="6906.43,-122 6779.57,-122 6779.57,-86 6906.43,-86 6906.43,-122"/>
<text text-anchor="middle" x="6843" y="-99.8" font-family="Times,serif" font-size="14.00">CoursesComponent</text>
</g>
<!-- CoursesComponent&#45;&gt;AppModule -->
<g id="edge9" class="edge">
<title>CoursesComponent&#45;&gt;AppModule</title>
<path fill="none" stroke="black" d="M6843,-122.28C6843,-143.32 6843,-175 6843,-175 6843,-175 4221.72,-175 4221.72,-175"/>
<polygon fill="black" stroke="black" points="4221.72,-171.5 4211.72,-175 4221.72,-178.5 4221.72,-171.5"/>
</g>
<!-- ReviewsComponent -->
<g id="node10" class="node">
<title>ReviewsComponent</title>
<polygon fill="#ffffb3" stroke="black" points="6761.54,-122 6632.46,-122 6632.46,-86 6761.54,-86 6761.54,-122"/>
<text text-anchor="middle" x="6697" y="-99.8" font-family="Times,serif" font-size="14.00">ReviewsComponent</text>
</g>
<!-- ReviewsComponent&#45;&gt;AppModule -->
<g id="edge10" class="edge">
<title>ReviewsComponent&#45;&gt;AppModule</title>
<path fill="none" stroke="black" d="M6697,-122.13C6697,-142.57 6697,-173 6697,-173 6697,-173 4221.75,-173 4221.75,-173"/>
<polygon fill="black" stroke="black" points="4221.75,-169.5 4211.75,-173 4221.75,-176.5 4221.75,-169.5"/>
</g>
<!-- CourseDetailComponent -->
<g id="node11" class="node">
<title>CourseDetailComponent</title>
<polygon fill="#ffffb3" stroke="black" points="6614.7,-122 6459.3,-122 6459.3,-86 6614.7,-86 6614.7,-122"/>
<text text-anchor="middle" x="6537" y="-99.8" font-family="Times,serif" font-size="14.00">CourseDetailComponent</text>
</g>
<!-- CourseDetailComponent&#45;&gt;AppModule -->
<g id="edge11" class="edge">
<title>CourseDetailComponent&#45;&gt;AppModule</title>
<path fill="none" stroke="black" d="M6537,-122.22C6537,-142.37 6537,-172 6537,-172 6537,-172 4221.84,-172 4221.84,-172"/>
<polygon fill="black" stroke="black" points="4221.84,-168.5 4211.84,-172 4221.84,-175.5 4221.84,-168.5"/>
</g>
<!-- ReviewDetailComponent -->
<g id="node12" class="node">
<title>ReviewDetailComponent</title>
<polygon fill="#ffffb3" stroke="black" points="6441.3,-122 6282.7,-122 6282.7,-86 6441.3,-86 6441.3,-122"/>
<text text-anchor="middle" x="6362" y="-99.8" font-family="Times,serif" font-size="14.00">ReviewDetailComponent</text>
</g>
<!-- ReviewDetailComponent&#45;&gt;AppModule -->
<g id="edge12" class="edge">
<title>ReviewDetailComponent&#45;&gt;AppModule</title>
<path fill="none" stroke="black" d="M6362,-122.03C6362,-141.58 6362,-170 6362,-170 6362,-170 4221.83,-170 4221.83,-170"/>
<polygon fill="black" stroke="black" points="4221.83,-166.5 4211.83,-170 4221.83,-173.5 4221.83,-166.5"/>
</g>
<!-- DialogOnDelete -->
<g id="node13" class="node">
<title>DialogOnDelete</title>
<polygon fill="#ffffb3" stroke="black" points="6264.74,-122 6157.26,-122 6157.26,-86 6264.74,-86 6264.74,-122"/>
<text text-anchor="middle" x="6211" y="-99.8" font-family="Times,serif" font-size="14.00">DialogOnDelete</text>
</g>
<!-- DialogOnDelete&#45;&gt;AppModule -->
<g id="edge13" class="edge">
<title>DialogOnDelete&#45;&gt;AppModule</title>
<path fill="none" stroke="black" d="M6211,-122.11C6211,-141.34 6211,-169 6211,-169 6211,-169 4221.69,-169 4221.69,-169"/>
<polygon fill="black" stroke="black" points="4221.69,-165.5 4211.69,-169 4221.69,-172.5 4221.69,-165.5"/>
</g>
<!-- RegisterComponent -->
<g id="node14" class="node">
<title>RegisterComponent</title>
<polygon fill="#ffffb3" stroke="black" points="6138.98,-122 6011.02,-122 6011.02,-86 6138.98,-86 6138.98,-122"/>
<text text-anchor="middle" x="6075" y="-99.8" font-family="Times,serif" font-size="14.00">RegisterComponent</text>
</g>
<!-- RegisterComponent&#45;&gt;AppModule -->
<g id="edge14" class="edge">
<title>RegisterComponent&#45;&gt;AppModule</title>
<path fill="none" stroke="black" d="M6075,-122.22C6075,-140.83 6075,-167 6075,-167 6075,-167 4222.01,-167 4222.01,-167"/>
<polygon fill="black" stroke="black" points="4222.01,-163.5 4212.01,-167 4222.01,-170.5 4222.01,-163.5"/>
</g>
<!-- ForgotPasswordComponent -->
<g id="node15" class="node">
<title>ForgotPasswordComponent</title>
<polygon fill="#ffffb3" stroke="black" points="5993.32,-122 5820.68,-122 5820.68,-86 5993.32,-86 5993.32,-122"/>
<text text-anchor="middle" x="5907" y="-99.8" font-family="Times,serif" font-size="14.00">ForgotPasswordComponent</text>
</g>
<!-- ForgotPasswordComponent&#45;&gt;AppModule -->
<g id="edge15" class="edge">
<title>ForgotPasswordComponent&#45;&gt;AppModule</title>
<path fill="none" stroke="black" d="M5907,-122.27C5907,-140.56 5907,-166 5907,-166 5907,-166 4222.08,-166 4222.08,-166"/>
<polygon fill="black" stroke="black" points="4222.08,-162.5 4212.08,-166 4222.08,-169.5 4222.08,-162.5"/>
</g>
<!-- VerifyEmailComponent -->
<g id="node16" class="node">
<title>VerifyEmailComponent</title>
<polygon fill="#ffffb3" stroke="black" points="5802.8,-122 5651.2,-122 5651.2,-86 5802.8,-86 5802.8,-122"/>
<text text-anchor="middle" x="5727" y="-99.8" font-family="Times,serif" font-size="14.00">VerifyEmailComponent</text>
</g>
<!-- VerifyEmailComponent&#45;&gt;AppModule -->
<g id="edge16" class="edge">
<title>VerifyEmailComponent&#45;&gt;AppModule</title>
<path fill="none" stroke="black" d="M5727,-122C5727,-139.68 5727,-164 5727,-164 5727,-164 4222.05,-164 4222.05,-164"/>
<polygon fill="black" stroke="black" points="4222.05,-160.5 4212.05,-164 4222.05,-167.5 4222.05,-160.5"/>
</g>
<!-- CourseListComponent -->
<g id="node17" class="node">
<title>CourseListComponent</title>
<polygon fill="#ffffb3" stroke="black" points="5633.27,-122 5490.73,-122 5490.73,-86 5633.27,-86 5633.27,-122"/>
<text text-anchor="middle" x="5562" y="-99.8" font-family="Times,serif" font-size="14.00">CourseListComponent</text>
</g>
<!-- CourseListComponent&#45;&gt;AppModule -->
<g id="edge17" class="edge">
<title>CourseListComponent&#45;&gt;AppModule</title>
<path fill="none" stroke="black" d="M5562,-122.02C5562,-139.37 5562,-163 5562,-163 5562,-163 4221.66,-163 4221.66,-163"/>
<polygon fill="black" stroke="black" points="4221.66,-159.5 4211.66,-163 4221.66,-166.5 4221.66,-159.5"/>
</g>
<!-- CourseCardComponent -->
<g id="node18" class="node">
<title>CourseCardComponent</title>
<polygon fill="#ffffb3" stroke="black" points="5473.2,-122 5324.8,-122 5324.8,-86 5473.2,-86 5473.2,-122"/>
<text text-anchor="middle" x="5399" y="-99.8" font-family="Times,serif" font-size="14.00">CourseCardComponent</text>
</g>
<!-- CourseCardComponent&#45;&gt;AppModule -->
<g id="edge18" class="edge">
<title>CourseCardComponent&#45;&gt;AppModule</title>
<path fill="none" stroke="black" d="M5399,-122.03C5399,-139.06 5399,-162 5399,-162 5399,-162 4221.95,-162 4221.95,-162"/>
<polygon fill="black" stroke="black" points="4221.95,-158.5 4211.95,-162 4221.95,-165.5 4221.95,-158.5"/>
</g>
<!-- CourseGridComponent -->
<g id="node19" class="node">
<title>CourseGridComponent</title>
<polygon fill="#ffffb3" stroke="black" points="5307.15,-122 5160.85,-122 5160.85,-86 5307.15,-86 5307.15,-122"/>
<text text-anchor="middle" x="5234" y="-99.8" font-family="Times,serif" font-size="14.00">CourseGridComponent</text>
</g>
<!-- CourseGridComponent&#45;&gt;AppModule -->
<g id="edge19" class="edge">
<title>CourseGridComponent&#45;&gt;AppModule</title>
<path fill="none" stroke="black" d="M5234,-122.03C5234,-138.4 5234,-160 5234,-160 5234,-160 4221.71,-160 4221.71,-160"/>
<polygon fill="black" stroke="black" points="4221.71,-156.5 4211.71,-160 4221.71,-163.5 4221.71,-156.5"/>
</g>
<!-- CourseGridCardComponent -->
<g id="node20" class="node">
<title>CourseGridCardComponent</title>
<polygon fill="#ffffb3" stroke="black" points="5142.86,-122 4969.14,-122 4969.14,-86 5142.86,-86 5142.86,-122"/>
<text text-anchor="middle" x="5056" y="-99.8" font-family="Times,serif" font-size="14.00">CourseGridCardComponent</text>
</g>
<!-- CourseGridCardComponent&#45;&gt;AppModule -->
<g id="edge20" class="edge">
<title>CourseGridCardComponent&#45;&gt;AppModule</title>
<path fill="none" stroke="black" d="M5056,-122.01C5056,-138.05 5056,-159 5056,-159 5056,-159 4221.84,-159 4221.84,-159"/>
<polygon fill="black" stroke="black" points="4221.84,-155.5 4211.84,-159 4221.84,-162.5 4221.84,-155.5"/>
</g>
<!-- LogoutComponent -->
<g id="node21" class="node">
<title>LogoutComponent</title>
<polygon fill="#ffffb3" stroke="black" points="4950.78,-122 4829.22,-122 4829.22,-86 4950.78,-86 4950.78,-122"/>
<text text-anchor="middle" x="4890" y="-99.8" font-family="Times,serif" font-size="14.00">LogoutComponent</text>
</g>
<!-- LogoutComponent&#45;&gt;AppModule -->
<g id="edge21" class="edge">
<title>LogoutComponent&#45;&gt;AppModule</title>
<path fill="none" stroke="black" d="M4890,-122.24C4890,-137.57 4890,-157 4890,-157 4890,-157 4221.82,-157 4221.82,-157"/>
<polygon fill="black" stroke="black" points="4221.82,-153.5 4211.82,-157 4221.82,-160.5 4221.82,-153.5"/>
</g>
<!-- CreateReviewComponent -->
<g id="node22" class="node">
<title>CreateReviewComponent</title>
<polygon fill="#ffffb3" stroke="black" points="4811.13,-122 4650.87,-122 4650.87,-86 4811.13,-86 4811.13,-122"/>
<text text-anchor="middle" x="4731" y="-99.8" font-family="Times,serif" font-size="14.00">CreateReviewComponent</text>
</g>
<!-- CreateReviewComponent&#45;&gt;AppModule -->
<g id="edge22" class="edge">
<title>CreateReviewComponent&#45;&gt;AppModule</title>
<path fill="none" stroke="black" d="M4731,-122.19C4731,-137.18 4731,-156 4731,-156 4731,-156 4221.71,-156 4221.71,-156"/>
<polygon fill="black" stroke="black" points="4221.71,-152.5 4211.71,-156 4221.71,-159.5 4221.71,-152.5"/>
</g>
<!-- DialogReviewSubmission -->
<g id="node23" class="node">
<title>DialogReviewSubmission</title>
<polygon fill="#ffffb3" stroke="black" points="4633.21,-122 4470.79,-122 4470.79,-86 4633.21,-86 4633.21,-122"/>
<text text-anchor="middle" x="4552" y="-99.8" font-family="Times,serif" font-size="14.00">DialogReviewSubmission</text>
</g>
<!-- DialogReviewSubmission&#45;&gt;AppModule -->
<g id="edge23" class="edge">
<title>DialogReviewSubmission&#45;&gt;AppModule</title>
<path fill="none" stroke="black" d="M4552,-122.05C4552,-136.37 4552,-154 4552,-154 4552,-154 4221.97,-154 4221.97,-154"/>
<polygon fill="black" stroke="black" points="4221.97,-150.5 4211.97,-154 4221.97,-157.5 4221.97,-150.5"/>
</g>
<!-- DialogNotLoggedIn -->
<g id="node24" class="node">
<title>DialogNotLoggedIn</title>
<polygon fill="#ffffb3" stroke="black" points="4452.53,-122 4323.47,-122 4323.47,-86 4452.53,-86 4452.53,-122"/>
<text text-anchor="middle" x="4388" y="-99.8" font-family="Times,serif" font-size="14.00">DialogNotLoggedIn</text>
</g>
<!-- DialogNotLoggedIn&#45;&gt;AppModule -->
<g id="edge24" class="edge">
<title>DialogNotLoggedIn&#45;&gt;AppModule</title>
<path fill="none" stroke="black" d="M4388,-122.25C4388,-136.18 4388,-153 4388,-153 4388,-153 4221.77,-153 4221.77,-153"/>
<polygon fill="black" stroke="black" points="4221.77,-149.5 4211.77,-153 4221.77,-156.5 4221.77,-149.5"/>
</g>
<!-- DialogNotVerified -->
<g id="node25" class="node">
<title>DialogNotVerified</title>
<polygon fill="#ffffb3" stroke="black" points="4304.74,-122 4183.26,-122 4183.26,-86 4304.74,-86 4304.74,-122"/>
<text text-anchor="middle" x="4244" y="-99.8" font-family="Times,serif" font-size="14.00">DialogNotVerified</text>
</g>
<!-- DialogNotVerified&#45;&gt;AppModule -->
<g id="edge25" class="edge">
<title>DialogNotVerified&#45;&gt;AppModule</title>
<path fill="none" stroke="black" d="M4197.48,-122.11C4197.48,-122.11 4197.48,-140.99 4197.48,-140.99"/>
<polygon fill="black" stroke="black" points="4193.98,-140.99 4197.48,-150.99 4200.98,-140.99 4193.98,-140.99"/>
</g>
<!-- DialogSendFeedback -->
<g id="node26" class="node">
<title>DialogSendFeedback</title>
<polygon fill="#ffffb3" stroke="black" points="4164.74,-122 4029.26,-122 4029.26,-86 4164.74,-86 4164.74,-122"/>
<text text-anchor="middle" x="4097" y="-99.8" font-family="Times,serif" font-size="14.00">DialogSendFeedback</text>
</g>
<!-- DialogSendFeedback&#45;&gt;AppModule -->
<g id="edge26" class="edge">
<title>DialogSendFeedback&#45;&gt;AppModule</title>
<path fill="none" stroke="black" d="M4146.52,-122.11C4146.52,-122.11 4146.52,-140.99 4146.52,-140.99"/>
<polygon fill="black" stroke="black" points="4143.02,-140.99 4146.52,-150.99 4150.02,-140.99 4143.02,-140.99"/>
</g>
<!-- EditComponent -->
<g id="node27" class="node">
<title>EditComponent</title>
<polygon fill="#ffffb3" stroke="black" points="4011.17,-122 3906.83,-122 3906.83,-86 4011.17,-86 4011.17,-122"/>
<text text-anchor="middle" x="3959" y="-99.8" font-family="Times,serif" font-size="14.00">EditComponent</text>
</g>
<!-- EditComponent&#45;&gt;AppModule -->
<g id="edge27" class="edge">
<title>EditComponent&#45;&gt;AppModule</title>
<path fill="none" stroke="black" d="M3959,-122.25C3959,-136.18 3959,-153 3959,-153 3959,-153 4118.31,-153 4118.31,-153"/>
<polygon fill="black" stroke="black" points="4118.31,-156.5 4128.31,-153 4118.31,-149.5 4118.31,-156.5"/>
</g>
<!-- ViewUserReviewsComponent -->
<g id="node28" class="node">
<title>ViewUserReviewsComponent</title>
<polygon fill="#ffffb3" stroke="black" points="3889.29,-122 3702.71,-122 3702.71,-86 3889.29,-86 3889.29,-122"/>
<text text-anchor="middle" x="3796" y="-99.8" font-family="Times,serif" font-size="14.00">ViewUserReviewsComponent</text>
</g>
<!-- ViewUserReviewsComponent&#45;&gt;AppModule -->
<g id="edge28" class="edge">
<title>ViewUserReviewsComponent&#45;&gt;AppModule</title>
<path fill="none" stroke="black" d="M3796,-122.05C3796,-136.37 3796,-154 3796,-154 3796,-154 4118.19,-154 4118.19,-154"/>
<polygon fill="black" stroke="black" points="4118.19,-157.5 4128.19,-154 4118.19,-150.5 4118.19,-157.5"/>
</g>
<!-- EditCourseMetadataComponent -->
<g id="node29" class="node">
<title>EditCourseMetadataComponent</title>
<polygon fill="#ffffb3" stroke="black" points="3685.41,-122 3488.59,-122 3488.59,-86 3685.41,-86 3685.41,-122"/>
<text text-anchor="middle" x="3587" y="-99.8" font-family="Times,serif" font-size="14.00">EditCourseMetadataComponent</text>
</g>
<!-- EditCourseMetadataComponent&#45;&gt;AppModule -->
<g id="edge29" class="edge">
<title>EditCourseMetadataComponent&#45;&gt;AppModule</title>
<path fill="none" stroke="black" d="M3587,-122.19C3587,-137.18 3587,-156 3587,-156 3587,-156 4118.07,-156 4118.07,-156"/>
<polygon fill="black" stroke="black" points="4118.07,-159.5 4128.07,-156 4118.07,-152.5 4118.07,-159.5"/>
</g>
<!-- SidenavComponent -->
<g id="node30" class="node">
<title>SidenavComponent</title>
<polygon fill="#ffffb3" stroke="black" points="3471.44,-122 3344.56,-122 3344.56,-86 3471.44,-86 3471.44,-122"/>
<text text-anchor="middle" x="3408" y="-99.8" font-family="Times,serif" font-size="14.00">SidenavComponent</text>
</g>
<!-- SidenavComponent&#45;&gt;AppModule -->
<g id="edge30" class="edge">
<title>SidenavComponent&#45;&gt;AppModule</title>
<path fill="none" stroke="black" d="M3408,-122.24C3408,-137.57 3408,-157 3408,-157 3408,-157 4118.22,-157 4118.22,-157"/>
<polygon fill="black" stroke="black" points="4118.22,-160.5 4128.22,-157 4118.22,-153.5 4118.22,-160.5"/>
</g>
<!-- FooterComponent -->
<g id="node31" class="node">
<title>FooterComponent</title>
<polygon fill="#ffffb3" stroke="black" points="3326.88,-122 3209.12,-122 3209.12,-86 3326.88,-86 3326.88,-122"/>
<text text-anchor="middle" x="3268" y="-99.8" font-family="Times,serif" font-size="14.00">FooterComponent</text>
</g>
<!-- FooterComponent&#45;&gt;AppModule -->
<g id="edge31" class="edge">
<title>FooterComponent&#45;&gt;AppModule</title>
<path fill="none" stroke="black" d="M3268,-122.01C3268,-138.05 3268,-159 3268,-159 3268,-159 4118.3,-159 4118.3,-159"/>
<polygon fill="black" stroke="black" points="4118.3,-162.5 4128.3,-159 4118.3,-155.5 4118.3,-162.5"/>
</g>
<!-- SadPandaComponent -->
<g id="node32" class="node">
<title>SadPandaComponent</title>
<polygon fill="#ffffb3" stroke="black" points="3191.04,-122 3054.96,-122 3054.96,-86 3191.04,-86 3191.04,-122"/>
<text text-anchor="middle" x="3123" y="-99.8" font-family="Times,serif" font-size="14.00">SadPandaComponent</text>
</g>
<!-- SadPandaComponent&#45;&gt;AppModule -->
<g id="edge32" class="edge">
<title>SadPandaComponent&#45;&gt;AppModule</title>
<path fill="none" stroke="black" d="M3123,-122.03C3123,-138.4 3123,-160 3123,-160 3123,-160 4118.31,-160 4118.31,-160"/>
<polygon fill="black" stroke="black" points="4118.31,-163.5 4128.31,-160 4118.31,-156.5 4118.31,-163.5"/>
</g>
<!-- ThankyouComponent -->
<g id="node33" class="node">
<title>ThankyouComponent</title>
<polygon fill="#ffffb3" stroke="black" points="3037.1,-122 2898.9,-122 2898.9,-86 3037.1,-86 3037.1,-122"/>
<text text-anchor="middle" x="2968" y="-99.8" font-family="Times,serif" font-size="14.00">ThankyouComponent</text>
</g>
<!-- ThankyouComponent&#45;&gt;AppModule -->
<g id="edge33" class="edge">
<title>ThankyouComponent&#45;&gt;AppModule</title>
<path fill="none" stroke="black" d="M2968,-122.03C2968,-139.06 2968,-162 2968,-162 2968,-162 4118.28,-162 4118.28,-162"/>
<polygon fill="black" stroke="black" points="4118.28,-165.5 4128.28,-162 4118.28,-158.5 4118.28,-165.5"/>
</g>
<!-- NothingHereComponent -->
<g id="node34" class="node">
<title>NothingHereComponent</title>
<polygon fill="#ffffb3" stroke="black" points="2881.42,-122 2726.58,-122 2726.58,-86 2881.42,-86 2881.42,-122"/>
<text text-anchor="middle" x="2804" y="-99.8" font-family="Times,serif" font-size="14.00">NothingHereComponent</text>
</g>
<!-- NothingHereComponent&#45;&gt;AppModule -->
<g id="edge34" class="edge">
<title>NothingHereComponent&#45;&gt;AppModule</title>
<path fill="none" stroke="black" d="M2804,-122.02C2804,-139.37 2804,-163 2804,-163 2804,-163 4118,-163 4118,-163"/>
<polygon fill="black" stroke="black" points="4118,-166.5 4128,-163 4118,-159.5 4118,-166.5"/>
</g>
<!-- PandaPartyComponent -->
<g id="node35" class="node">
<title>PandaPartyComponent</title>
<polygon fill="#ffffb3" stroke="black" points="2708.59,-122 2563.41,-122 2563.41,-86 2708.59,-86 2708.59,-122"/>
<text text-anchor="middle" x="2636" y="-99.8" font-family="Times,serif" font-size="14.00">PandaPartyComponent</text>
</g>
<!-- PandaPartyComponent&#45;&gt;AppModule -->
<g id="edge35" class="edge">
<title>PandaPartyComponent&#45;&gt;AppModule</title>
<path fill="none" stroke="black" d="M2636,-122C2636,-139.68 2636,-164 2636,-164 2636,-164 4118.17,-164 4118.17,-164"/>
<polygon fill="black" stroke="black" points="4118.17,-167.5 4128.17,-164 4118.17,-160.5 4118.17,-167.5"/>
</g>
<!-- StarRatingComponent -->
<g id="node36" class="node">
<title>StarRatingComponent</title>
<polygon fill="#ffffb3" stroke="black" points="2545.71,-122 2404.29,-122 2404.29,-86 2545.71,-86 2545.71,-122"/>
<text text-anchor="middle" x="2475" y="-99.8" font-family="Times,serif" font-size="14.00">StarRatingComponent</text>
</g>
<!-- StarRatingComponent&#45;&gt;AppModule -->
<g id="edge36" class="edge">
<title>StarRatingComponent&#45;&gt;AppModule</title>
<path fill="none" stroke="black" d="M2475,-122.27C2475,-140.56 2475,-166 2475,-166 2475,-166 4118.1,-166 4118.1,-166"/>
<polygon fill="black" stroke="black" points="4118.1,-169.5 4128.1,-166 4118.1,-162.5 4118.1,-169.5"/>
</g>
<!-- AppComponent  -->
<g id="node50" class="node">
<title>AppComponent </title>
<polygon fill="#80b1d3" stroke="black" points="4224.44,-252 4115.56,-252 4115.56,-216 4224.44,-216 4224.44,-252"/>
<text text-anchor="middle" x="4170" y="-229.8" font-family="Times,serif" font-size="14.00">AppComponent </text>
</g>
<!-- AppModule&#45;&gt;AppComponent  -->
<g id="edge49" class="edge">
<title>AppModule&#45;&gt;AppComponent </title>
<path fill="none" stroke="black" stroke-dasharray="1,5" d="M4170,-187.11C4170,-187.11 4170,-205.99 4170,-205.99"/>
<polygon fill="black" stroke="black" points="4166.5,-205.99 4170,-215.99 4173.5,-205.99 4166.5,-205.99"/>
</g>
<!-- BrowserModule -->
<g id="node38" class="node">
<title>BrowserModule</title>
<polygon fill="#8dd3c7" stroke="black" points="1950.47,-122 1947.47,-126 1926.47,-126 1923.47,-122 1843.53,-122 1843.53,-86 1950.47,-86 1950.47,-122"/>
<text text-anchor="middle" x="1897" y="-99.8" font-family="Times,serif" font-size="14.00">BrowserModule</text>
</g>
<!-- BrowserModule&#45;&gt;AppModule -->
<g id="edge37" class="edge">
<title>BrowserModule&#45;&gt;AppModule</title>
<path fill="none" stroke="black" d="M1897,-122.03C1897,-141.58 1897,-170 1897,-170 1897,-170 4118.12,-170 4118.12,-170"/>
<polygon fill="black" stroke="black" points="4118.12,-173.5 4128.12,-170 4118.12,-166.5 4118.12,-173.5"/>
</g>
<!-- AppRoutingModule -->
<g id="node39" class="node">
<title>AppRoutingModule</title>
<polygon fill="#8dd3c7" stroke="black" points="1825.27,-122 1822.27,-126 1801.27,-126 1798.27,-122 1696.73,-122 1696.73,-86 1825.27,-86 1825.27,-122"/>
<text text-anchor="middle" x="1761" y="-99.8" font-family="Times,serif" font-size="14.00">AppRoutingModule</text>
</g>
<!-- AppRoutingModule&#45;&gt;AppModule -->
<g id="edge38" class="edge">
<title>AppRoutingModule&#45;&gt;AppModule</title>
<path fill="none" stroke="black" d="M1761,-122.22C1761,-142.37 1761,-172 1761,-172 1761,-172 4118.19,-172 4118.19,-172"/>
<polygon fill="black" stroke="black" points="4118.19,-175.5 4128.19,-172 4118.19,-168.5 4118.19,-175.5"/>
</g>
<!-- BrowserAnimationsModule -->
<g id="node40" class="node">
<title>BrowserAnimationsModule</title>
<polygon fill="#8dd3c7" stroke="black" points="1678.3,-122 1675.3,-126 1654.3,-126 1651.3,-122 1505.7,-122 1505.7,-86 1678.3,-86 1678.3,-122"/>
<text text-anchor="middle" x="1592" y="-99.8" font-family="Times,serif" font-size="14.00">BrowserAnimationsModule</text>
</g>
<!-- BrowserAnimationsModule&#45;&gt;AppModule -->
<g id="edge39" class="edge">
<title>BrowserAnimationsModule&#45;&gt;AppModule</title>
<path fill="none" stroke="black" d="M1592,-122.13C1592,-142.57 1592,-173 1592,-173 1592,-173 4118.2,-173 4118.2,-173"/>
<polygon fill="black" stroke="black" points="4118.2,-176.5 4128.2,-173 4118.2,-169.5 4118.2,-176.5"/>
</g>
<!-- MaterialModule -->
<g id="node41" class="node">
<title>MaterialModule</title>
<polygon fill="#8dd3c7" stroke="black" points="1487.47,-122 1484.47,-126 1463.47,-126 1460.47,-122 1380.53,-122 1380.53,-86 1487.47,-86 1487.47,-122"/>
<text text-anchor="middle" x="1434" y="-99.8" font-family="Times,serif" font-size="14.00">MaterialModule</text>
</g>
<!-- MaterialModule&#45;&gt;AppModule -->
<g id="edge40" class="edge">
<title>MaterialModule&#45;&gt;AppModule</title>
<path fill="none" stroke="black" d="M1434,-122.28C1434,-143.32 1434,-175 1434,-175 1434,-175 4118.12,-175 4118.12,-175"/>
<polygon fill="black" stroke="black" points="4118.12,-178.5 4128.12,-175 4118.12,-171.5 4118.12,-178.5"/>
</g>
<!-- AngularFireModule.initializeApp(args) -->
<g id="node42" class="node">
<title>AngularFireModule.initializeApp(args)</title>
<polygon fill="#8dd3c7" stroke="black" points="1362.71,-122 1359.71,-126 1338.71,-126 1335.71,-122 1125.29,-122 1125.29,-86 1362.71,-86 1362.71,-122"/>
<text text-anchor="middle" x="1244" y="-99.8" font-family="Times,serif" font-size="14.00">AngularFireModule.initializeApp(args)</text>
</g>
<!-- AngularFireModule.initializeApp(args)&#45;&gt;AppModule -->
<g id="edge41" class="edge">
<title>AngularFireModule.initializeApp(args)&#45;&gt;AppModule</title>
<path fill="none" stroke="black" d="M1244,-122.17C1244,-143.5 1244,-176 1244,-176 1244,-176 4118.07,-176 4118.07,-176"/>
<polygon fill="black" stroke="black" points="4118.08,-179.5 4128.07,-176 4118.07,-172.5 4118.08,-179.5"/>
</g>
<!-- AngularFireAuthModule -->
<g id="node43" class="node">
<title>AngularFireAuthModule</title>
<polygon fill="#8dd3c7" stroke="black" points="1106.97,-122 1103.97,-126 1082.97,-126 1079.97,-122 951.03,-122 951.03,-86 1106.97,-86 1106.97,-122"/>
<text text-anchor="middle" x="1029" y="-99.8" font-family="Times,serif" font-size="14.00">AngularFireAuthModule</text>
</g>
<!-- AngularFireAuthModule&#45;&gt;AppModule -->
<g id="edge42" class="edge">
<title>AngularFireAuthModule&#45;&gt;AppModule</title>
<path fill="none" stroke="black" d="M1029,-122.04C1029,-143.66 1029,-177 1029,-177 1029,-177 4118.27,-177 4118.27,-177"/>
<polygon fill="black" stroke="black" points="4118.27,-180.5 4128.27,-177 4118.27,-173.5 4118.27,-180.5"/>
</g>
<!-- AngularFirestoreModule -->
<g id="node44" class="node">
<title>AngularFirestoreModule</title>
<polygon fill="#8dd3c7" stroke="black" points="932.68,-122 929.68,-126 908.68,-126 905.68,-122 777.32,-122 777.32,-86 932.68,-86 932.68,-122"/>
<text text-anchor="middle" x="855" y="-99.8" font-family="Times,serif" font-size="14.00">AngularFirestoreModule</text>
</g>
<!-- AngularFirestoreModule&#45;&gt;AppModule -->
<g id="edge43" class="edge">
<title>AngularFirestoreModule&#45;&gt;AppModule</title>
<path fill="none" stroke="black" d="M855,-122.16C855,-144.35 855,-179 855,-179 855,-179 4118.09,-179 4118.09,-179"/>
<polygon fill="black" stroke="black" points="4118.09,-182.5 4128.09,-179 4118.09,-175.5 4118.09,-182.5"/>
</g>
<!-- AngularFireAnalyticsModule -->
<g id="node45" class="node">
<title>AngularFireAnalyticsModule</title>
<polygon fill="#8dd3c7" stroke="black" points="759.62,-122 756.62,-126 735.62,-126 732.62,-122 578.38,-122 578.38,-86 759.62,-86 759.62,-122"/>
<text text-anchor="middle" x="669" y="-99.8" font-family="Times,serif" font-size="14.00">AngularFireAnalyticsModule</text>
</g>
<!-- AngularFireAnalyticsModule&#45;&gt;AppModule -->
<g id="edge44" class="edge">
<title>AngularFireAnalyticsModule&#45;&gt;AppModule</title>
<path fill="none" stroke="black" d="M669,-122.01C669,-144.49 669,-180 669,-180 669,-180 4118.24,-180 4118.24,-180"/>
<polygon fill="black" stroke="black" points="4118.24,-183.5 4128.24,-180 4118.24,-176.5 4118.24,-183.5"/>
</g>
<!-- HttpClientModule -->
<g id="node46" class="node">
<title>HttpClientModule</title>
<polygon fill="#8dd3c7" stroke="black" points="560.16,-122 557.16,-126 536.16,-126 533.16,-122 441.84,-122 441.84,-86 560.16,-86 560.16,-122"/>
<text text-anchor="middle" x="501" y="-99.8" font-family="Times,serif" font-size="14.00">HttpClientModule</text>
</g>
<!-- HttpClientModule&#45;&gt;AppModule -->
<g id="edge45" class="edge">
<title>HttpClientModule&#45;&gt;AppModule</title>
<path fill="none" stroke="black" d="M501,-122.09C501,-145.13 501,-182 501,-182 501,-182 4118.16,-182 4118.16,-182"/>
<polygon fill="black" stroke="black" points="4118.16,-185.5 4128.16,-182 4118.16,-178.5 4118.16,-185.5"/>
</g>
<!-- FormsModule -->
<g id="node47" class="node">
<title>FormsModule</title>
<polygon fill="#8dd3c7" stroke="black" points="423.83,-122 420.83,-126 399.83,-126 396.83,-122 328.17,-122 328.17,-86 423.83,-86 423.83,-122"/>
<text text-anchor="middle" x="376" y="-99.8" font-family="Times,serif" font-size="14.00">FormsModule</text>
</g>
<!-- FormsModule&#45;&gt;AppModule -->
<g id="edge46" class="edge">
<title>FormsModule&#45;&gt;AppModule</title>
<path fill="none" stroke="black" d="M376,-122.32C376,-145.66 376,-183 376,-183 376,-183 4118.04,-183 4118.04,-183"/>
<polygon fill="black" stroke="black" points="4118.04,-186.5 4128.04,-183 4118.04,-179.5 4118.04,-186.5"/>
</g>
<!-- ReactiveFormsModule -->
<g id="node48" class="node">
<title>ReactiveFormsModule</title>
<polygon fill="#8dd3c7" stroke="black" points="310.3,-122 307.3,-126 286.3,-126 283.3,-122 165.7,-122 165.7,-86 310.3,-86 310.3,-122"/>
<text text-anchor="middle" x="238" y="-99.8" font-family="Times,serif" font-size="14.00">ReactiveFormsModule</text>
</g>
<!-- ReactiveFormsModule&#45;&gt;AppModule -->
<g id="edge47" class="edge">
<title>ReactiveFormsModule&#45;&gt;AppModule</title>
<path fill="none" stroke="black" d="M238,-122.38C238,-146.28 238,-185 238,-185 238,-185 4118.17,-185 4118.17,-185"/>
<polygon fill="black" stroke="black" points="4118.17,-188.5 4128.17,-185 4118.17,-181.5 4118.17,-188.5"/>
</g>
<!-- FlexLayoutModule -->
<g id="node49" class="node">
<title>FlexLayoutModule</title>
<polygon fill="#8dd3c7" stroke="black" points="148.1,-122 145.1,-126 124.1,-126 121.1,-122 23.9,-122 23.9,-86 148.1,-86 148.1,-122"/>
<text text-anchor="middle" x="86" y="-99.8" font-family="Times,serif" font-size="14.00">FlexLayoutModule</text>
</g>
<!-- FlexLayoutModule&#45;&gt;AppModule -->
<g id="edge48" class="edge">
<title>FlexLayoutModule&#45;&gt;AppModule</title>
<path fill="none" stroke="black" d="M86,-122.2C86,-146.36 86,-186 86,-186 86,-186 4118.25,-186 4118.25,-186"/>
<polygon fill="black" stroke="black" points="4118.25,-189.5 4128.25,-186 4118.25,-182.5 4118.25,-189.5"/>
</g>
<!-- ScreenTrackingService -->
<g id="node51" class="node">
<title>ScreenTrackingService</title>
<ellipse fill="#fdb462" stroke="black" cx="2279" cy="-104" rx="101.24" ry="18"/>
<text text-anchor="middle" x="2279" y="-99.8" font-family="Times,serif" font-size="14.00">ScreenTrackingService</text>
</g>
<!-- ScreenTrackingService&#45;&gt;AppModule -->
<g id="edge50" class="edge">
<title>ScreenTrackingService&#45;&gt;AppModule</title>
<path fill="none" stroke="black" d="M2279,-122.22C2279,-140.83 2279,-167 2279,-167 2279,-167 4118.3,-167 4118.3,-167"/>
<polygon fill="black" stroke="black" points="4118.3,-170.5 4128.3,-167 4118.3,-163.5 4118.3,-170.5"/>
</g>
<!-- UserTrackingService -->
<g id="node52" class="node">
<title>UserTrackingService</title>
<ellipse fill="#fdb462" stroke="black" cx="2067" cy="-104" rx="93.15" ry="18"/>
<text text-anchor="middle" x="2067" y="-99.8" font-family="Times,serif" font-size="14.00">UserTrackingService</text>
</g>
<!-- UserTrackingService&#45;&gt;AppModule -->
<g id="edge51" class="edge">
<title>UserTrackingService&#45;&gt;AppModule</title>
<path fill="none" stroke="black" d="M2067,-122.11C2067,-141.34 2067,-169 2067,-169 2067,-169 4117.99,-169 4117.99,-169"/>
<polygon fill="black" stroke="black" points="4117.99,-172.5 4127.99,-169 4117.99,-165.5 4117.99,-172.5"/>
</g>
</g>
</svg>
